<svg width="232" height="222" viewBox="0 0 232 222" fill="none" xmlns="http://www.w3.org/2000/svg">
<path d="M155.953 87.4842C139.523 87.4842 122.8 86.8169 107.156 82.4593C91.806 78.1999 77.7126 69.9362 65.1502 60.377C56.9257 54.1546 49.4472 49.2082 38.7691 49.9541C28.3207 50.5098 18.3283 54.4118 10.2682 61.0836C-3.31489 72.9786 -1.2735 95.0021 4.16366 110.45C12.3292 133.749 37.1792 149.963 58.2997 160.484C82.6983 172.673 109.511 179.739 136.383 183.822C159.937 187.395 190.205 190.005 210.619 174.616C229.364 160.484 234.507 128.214 229.914 106.426C228.8 99.9836 225.373 94.1693 220.276 90.0752C207.105 80.4572 187.457 86.8758 172.657 87.2094C167.161 87.3272 161.567 87.445 155.953 87.4842Z" fill="#EBEAF5"/>
<path d="M115.754 222C155.55 222 187.811 219.988 187.811 217.505C187.811 215.023 155.55 213.01 115.754 213.01C75.9583 213.01 43.6973 215.023 43.6973 217.505C43.6973 219.988 75.9583 222 115.754 222Z" fill="#EBEAF5"/>
<path d="M205.672 26.2622C206.734 26.2622 207.595 25.401 207.595 24.3386C207.595 23.2762 206.734 22.415 205.672 22.415C204.609 22.415 203.748 23.2762 203.748 24.3386C203.748 25.401 204.609 26.2622 205.672 26.2622Z" fill="#9983A7"/>
<path d="M77.7127 10.147C78.7751 10.147 79.6363 9.28579 79.6363 8.2234C79.6363 7.16102 78.7751 6.29978 77.7127 6.29978C76.6503 6.29978 75.7891 7.16102 75.7891 8.2234C75.7891 9.28579 76.6503 10.147 77.7127 10.147Z" fill="#9983A7"/>
<path d="M100.972 193.303C102.035 193.303 102.896 192.442 102.896 191.379C102.896 190.317 102.035 189.456 100.972 189.456C99.9101 189.456 99.0488 190.317 99.0488 191.379C99.0488 192.442 99.9101 193.303 100.972 193.303Z" fill="#9983A7"/>
<path d="M152.322 1V9.44036" stroke="#9983A7" stroke-linecap="round" stroke-linejoin="round"/>
<path d="M148.102 5.22023H156.542" stroke="#9983A7" stroke-linecap="round" stroke-linejoin="round"/>
<path d="M14.8027 36.528V44.9684" stroke="#9983A7" stroke-linecap="round" stroke-linejoin="round"/>
<path d="M10.5615 40.7482H19.0215" stroke="#9983A7" stroke-linecap="round" stroke-linejoin="round"/>
<path d="M21.1621 154.124V162.584" stroke="#9983A7" stroke-linecap="round" stroke-linejoin="round"/>
<path d="M16.9219 158.344H25.3819" stroke="#9983A7" stroke-linecap="round" stroke-linejoin="round"/>
<path d="M195.563 67.5807V76.0211" stroke="#9983A7" stroke-linecap="round" stroke-linejoin="round"/>
<path d="M191.343 71.8009H199.783" stroke="#9983A7" stroke-linecap="round" stroke-linejoin="round"/>
<path d="M136.734 18.3371L38.2117 31.2744C31.826 32.113 27.3292 37.9693 28.1677 44.355L43.1847 158.715C44.0232 165.101 49.8796 169.598 56.2653 168.759L154.788 155.822C161.173 154.983 165.67 149.127 164.832 142.741L149.815 28.3812C148.976 21.9955 143.12 17.4986 136.734 18.3371Z" fill="#DCCEE5"/>
<path d="M165.197 35H65.6791C59.2289 35 54 40.2289 54 46.6791V162.194C54 168.644 59.2289 173.873 65.6791 173.873H165.197C171.647 173.873 176.876 168.644 176.876 162.194V46.6791C176.876 40.2289 171.647 35 165.197 35Z" fill="#F8F9FF" stroke="#9983A7" stroke-linecap="round" stroke-linejoin="round"/>
<path d="M116 127.5C128.427 127.5 138.5 117.427 138.5 105C138.5 92.5733 128.427 82.5 116 82.5" stroke="#9983A7" stroke-width="1.5" stroke-linecap="round"/>
<path opacity="0.5" d="M116 127.5C103.573 127.5 93.5 117.427 93.5 105C93.5 92.5733 104.698 82.5 117.125 82.5" stroke="#9983A7" stroke-width="1.5" stroke-linecap="round" stroke-dasharray="4 3"/>
<path d="M123.681 102.617C125.439 103.657 125.439 106.343 123.681 107.383L113.062 113.654C111.352 114.662 109.25 113.348 109.25 111.269V98.7315C109.25 96.6525 111.352 95.3407 113.062 96.3487L123.681 102.617Z" stroke="#9983A7" stroke-width="1.5"/>
</svg>
