<svg width="253" height="222" viewBox="0 0 253 222" fill="none" xmlns="http://www.w3.org/2000/svg">
<path d="M34.1124 162.841C35.2737 162.841 36.2152 161.9 36.2152 160.739C36.2152 159.577 35.2737 158.636 34.1124 158.636C32.951 158.636 32.0095 159.577 32.0095 160.739C32.0095 161.9 32.951 162.841 34.1124 162.841Z" fill="#9983A7"/>
<path d="M170.443 74.9513C152.487 74.9513 134.209 74.2218 117.112 69.4582C100.336 64.8019 84.933 55.7682 71.2034 45.3184C62.2148 38.5164 54.0414 33.0876 42.3713 33.903C30.9544 34.5209 20.0366 38.7853 11.2222 46.0694C-3.62288 59.0727 -1.39182 83.1696 4.55052 100.035C13.4748 125.505 40.6336 143.251 63.7165 154.731C90.382 168.056 119.686 175.802 149.055 180.244C174.798 184.17 207.877 187.003 230.188 170.201C250.675 154.731 256.296 119.454 251.276 95.6364C250.058 88.6002 246.312 82.2513 240.743 77.7837C226.348 67.2481 204.874 74.2861 188.699 74.6295C182.692 74.7582 176.578 74.9084 170.443 74.9513Z" fill="#EBEAF5"/>
<path d="M133.051 182.904C146.427 182.904 157.271 172.058 157.271 158.679C157.271 145.299 146.427 134.453 133.051 134.453C119.675 134.453 108.831 145.299 108.831 158.679C108.831 172.058 119.675 182.904 133.051 182.904Z" fill="#DCCEE6"/>
<path d="M108.024 7.43752C109.363 7.13886 110.748 7.10695 112.099 7.34359C113.45 7.58024 114.742 8.08081 115.9 8.81672C117.058 9.55264 118.06 10.5095 118.848 11.6326C119.636 12.7558 120.196 14.0233 120.494 15.3627L124.365 32.7246L103.929 37.2824L100.059 19.9204C99.7592 18.5775 99.7279 17.1887 99.9665 15.8336C100.205 14.4786 100.709 13.184 101.449 12.0242C102.189 10.8643 103.151 9.86211 104.279 9.07502C105.407 8.28792 106.68 7.73144 108.024 7.43752Z" fill="#F8F9FF" stroke="#9983A7" stroke-linecap="round" stroke-linejoin="round"/>
<path d="M203.501 143.637L79.3129 171.317C78.5415 171.49 77.7383 171.459 76.9826 171.227C76.2268 170.995 75.5446 170.57 75.0031 169.994C74.4617 169.418 74.0798 168.71 73.8951 167.941C73.7104 167.173 73.7292 166.369 73.9498 165.609L74.4646 163.829C78.7551 148.615 82.4879 131.857 79.0555 116.407L71.7187 83.4485C65.5404 55.7467 82.1446 27.53 109.69 20.728C116.406 19.0602 123.389 18.753 130.226 19.8246C137.063 20.8962 143.617 23.3249 149.502 26.9678C155.387 30.6107 160.484 35.3942 164.493 41.0367C168.502 46.6793 171.342 53.0669 172.846 59.8237L180.419 93.8983C183.872 109.348 194.298 122.995 204.724 134.882L205.947 136.277C206.442 136.874 206.777 137.588 206.92 138.35C207.063 139.113 207.01 139.899 206.766 140.636C206.521 141.372 206.093 142.034 205.522 142.559C204.951 143.084 204.255 143.455 203.501 143.637Z" fill="#F8F9FF" stroke="#9983A7" stroke-linecap="round" stroke-linejoin="round"/>
<path d="M111.641 122.394C111.607 117.382 113.291 112.51 116.411 108.589C119.532 104.667 123.901 101.933 128.792 100.842C133.682 99.7509 138.799 100.368 143.29 102.591C147.781 104.814 151.375 108.509 153.474 113.06" stroke="#9983A7" stroke-linecap="round" stroke-linejoin="round"/>
<path d="M149.955 87.5684C151.638 87.5684 153.002 86.2042 153.002 84.5214C153.002 82.8386 151.638 81.4745 149.955 81.4745C148.273 81.4745 146.909 82.8386 146.909 84.5214C146.909 86.2042 148.273 87.5684 149.955 87.5684Z" fill="#9983A7"/>
<path d="M102.717 98.104C104.399 98.104 105.763 96.7398 105.763 95.057C105.763 93.3742 104.399 92.0101 102.717 92.0101C101.035 92.0101 99.6707 93.3742 99.6707 95.057C99.6707 96.7398 101.035 98.104 102.717 98.104Z" fill="#9983A7"/>
<path d="M159.524 4.20569C160.686 4.20569 161.627 3.26421 161.627 2.10284C161.627 0.941473 160.686 0 159.524 0C158.363 0 157.421 0.941473 157.421 2.10284C157.421 3.26421 158.363 4.20569 159.524 4.20569Z" fill="#9983A7"/>
<path d="M34.1124 162.841C35.2737 162.841 36.2152 161.9 36.2152 160.739C36.2152 159.577 35.2737 158.636 34.1124 158.636C32.951 158.636 32.0095 159.577 32.0095 160.739C32.0095 161.9 32.951 162.841 34.1124 162.841Z" fill="#9983A7"/>
<path d="M217.616 52.8929V62.1197" stroke="#9983A7" stroke-linecap="round" stroke-linejoin="round"/>
<path d="M213.004 57.5063H222.229" stroke="#9983A7" stroke-linecap="round" stroke-linejoin="round"/>
<path d="M221.822 191.809V201.036" stroke="#9983A7" stroke-linecap="round" stroke-linejoin="round"/>
<path d="M217.209 196.423H226.434" stroke="#9983A7" stroke-linecap="round" stroke-linejoin="round"/>
<path d="M60.5415 17.9172V27.1439" stroke="#9983A7" stroke-linecap="round" stroke-linejoin="round"/>
<path d="M55.9294 22.5305H65.154" stroke="#9983A7" stroke-linecap="round" stroke-linejoin="round"/>
<path d="M127.366 222C170.86 222 206.118 219.8 206.118 217.086C206.118 214.372 170.86 212.172 127.366 212.172C83.8728 212.172 48.6143 214.372 48.6143 217.086C48.6143 219.8 83.8728 222 127.366 222Z" fill="#EBEAF5"/>
<path d="M202.6 47.6573C202.594 54.183 200 60.4398 195.387 65.0542C190.773 69.6686 184.518 72.2634 177.994 72.2691C177.191 72.269 176.389 72.226 175.591 72.1404L168.297 84.0493L166.023 69.1363C162.234 67.0257 159.069 63.9507 156.851 60.2229C154.632 56.495 153.438 52.2468 153.389 47.9086C153.341 43.5705 154.44 39.2966 156.574 35.52C158.709 31.7434 161.804 28.5984 165.545 26.4035C169.287 24.2087 173.542 23.042 177.879 23.0217C182.216 23.0015 186.482 24.1283 190.244 26.2881C194.005 28.448 197.129 31.564 199.299 35.3204C201.469 39.0769 202.608 43.3403 202.6 47.6788V47.6573Z" fill="#F8F9FF" stroke="#9983A7" stroke-linecap="round" stroke-linejoin="round"/>
<path d="M167.483 50.1463C168.857 50.1463 169.971 49.0319 169.971 47.6572C169.971 46.2826 168.857 45.1682 167.483 45.1682C166.108 45.1682 164.994 46.2826 164.994 47.6572C164.994 49.0319 166.108 50.1463 167.483 50.1463Z" fill="#F8F9FF" stroke="#9983A7" stroke-miterlimit="10"/>
<path d="M177.994 50.1463C179.368 50.1463 180.482 49.0319 180.482 47.6572C180.482 46.2826 179.368 45.1682 177.994 45.1682C176.62 45.1682 175.505 46.2826 175.505 47.6572C175.505 49.0319 176.62 50.1463 177.994 50.1463Z" fill="#EDEFFB" stroke="#9983A7" stroke-miterlimit="10"/>
<path d="M188.506 50.1463C189.88 50.1463 190.994 49.0319 190.994 47.6572C190.994 46.2826 189.88 45.1682 188.506 45.1682C187.131 45.1682 186.017 46.2826 186.017 47.6572C186.017 49.0319 187.131 50.1463 188.506 50.1463Z" fill="#E3E5F1" stroke="#9983A7" stroke-miterlimit="10"/>
</svg>
