<svg width="24" height="24" viewBox="0 0 24 24" fill="none" xmlns="http://www.w3.org/2000/svg">
<path d="M16.0001 2H15.0001C13.5861 2 12.8791 2 12.4401 2.44C12.0001 2.878 12.0001 3.585 12.0001 5C12.0001 6.415 12.0001 7.121 12.4401 7.56C12.8781 8 13.5851 8 15.0001 8H16.0001C17.4141 8 18.1211 8 18.5601 7.56C18.8451 7.276 18.9461 6.879 18.9801 6.25H19.0001L20.6151 6.923C21.2421 7.184 21.5551 7.314 21.7771 7.166C22.0001 7.018 22.0001 6.678 22.0001 6V4C22.0001 3.322 22.0001 2.982 21.7771 2.834C21.5551 2.686 21.2421 2.816 20.6151 3.077L19.0001 3.75H18.9801C18.9451 3.121 18.8451 2.724 18.5601 2.44C18.1221 2 17.4151 2 16.0001 2ZM8.00006 17C5.17206 17 3.75706 17 2.87906 16.121C2.30906 15.552 2.10906 14.758 2.03906 13.5H21.9621C21.8921 14.758 21.6911 15.552 21.1221 16.121C20.2411 17 18.8271 17 16.0001 17H12.7501V21H16.0001C16.199 21 16.3897 21.079 16.5304 21.2197C16.671 21.3603 16.7501 21.5511 16.7501 21.75C16.7501 21.9489 16.671 22.1397 16.5304 22.2803C16.3897 22.421 16.199 22.5 16.0001 22.5H8.00006C7.80115 22.5 7.61038 22.421 7.46973 22.2803C7.32908 22.1397 7.25006 21.9489 7.25006 21.75C7.25006 21.5511 7.32908 21.3603 7.46973 21.2197C7.61038 21.079 7.80115 21 8.00006 21H11.2501V17H8.00006Z" fill="#662D91"/>
<path d="M22.0004 10V11C22.0017 11.5513 21.9997 12.0513 21.9944 12.5H2.00736C2.00136 12.0513 1.99903 11.5513 2.00036 11V10C2.00036 6.229 2.00036 4.343 3.17236 3.172C4.34436 2.001 6.22936 2 10.0004 2H10.9184C10.7134 2.384 10.6184 2.786 10.5684 3.154C10.5004 3.664 10.5004 4.282 10.5004 4.918V5.082C10.5004 5.718 10.5004 6.336 10.5684 6.846C10.6464 7.421 10.8344 8.076 11.3784 8.621C11.9244 9.166 12.5794 9.354 13.1544 9.431C13.6644 9.501 14.2824 9.501 14.9184 9.5H16.0824C16.7184 9.5 17.3364 9.5 17.8464 9.432C18.4214 9.354 19.0764 9.166 19.6214 8.622C19.7328 8.51073 19.8339 8.38956 19.9234 8.26L20.0394 8.308L20.0954 8.331C20.3554 8.44 20.6854 8.577 20.9804 8.652C21.2134 8.712 21.5864 8.774 21.9984 8.679C21.9997 9.09167 22.0004 9.532 22.0004 10Z" fill="#662D91"/>
</svg>
