<svg width="16" height="15" viewBox="0 0 16 15" fill="none" xmlns="http://www.w3.org/2000/svg">
<path fill-rule="evenodd" clip-rule="evenodd" d="M4.63247 0.799946C4.76508 0.799946 4.89226 0.852624 4.98602 0.946392C5.07979 1.04016 5.13247 1.16734 5.13247 1.29995V1.80861C5.5738 1.79995 6.0598 1.79995 6.59447 1.79995H9.33647C9.8718 1.79995 10.3578 1.79995 10.7991 1.80861V1.29995C10.7991 1.16734 10.8518 1.04016 10.9456 0.946392C11.0394 0.852624 11.1665 0.799946 11.2991 0.799946C11.4317 0.799946 11.5589 0.852624 11.6527 0.946392C11.7465 1.04016 11.7991 1.16734 11.7991 1.29995V1.85128C11.9725 1.86461 12.1367 1.8815 12.2918 1.90195C13.0731 2.00728 13.7058 2.22861 14.2051 2.72728C14.7038 3.22661 14.9251 3.85928 15.0305 4.64061C15.1325 5.40061 15.1325 6.37061 15.1325 7.59595V9.00395C15.1325 10.2293 15.1325 11.1999 15.0305 11.9593C14.9251 12.7406 14.7038 13.3733 14.2051 13.8726C13.7058 14.3713 13.0731 14.5926 12.2918 14.6979C11.5318 14.7999 10.5618 14.7999 9.33647 14.7999H6.5958C5.37047 14.7999 4.3998 14.7999 3.64047 14.6979C2.85914 14.5926 2.22647 14.3713 1.72714 13.8726C1.22847 13.3733 1.00714 12.7406 0.901805 11.9593C0.799805 11.1993 0.799805 10.2293 0.799805 9.00395V7.59595C0.799805 6.37061 0.799805 5.39995 0.901805 4.64061C1.00714 3.85928 1.22847 3.22661 1.72714 2.72728C2.22647 2.22861 2.85914 2.00728 3.64047 1.90195C3.79603 1.8815 3.96025 1.86461 4.13314 1.85128V1.29995C4.13314 1.16745 4.18572 1.04038 4.27935 0.946628C4.37297 0.852879 4.49998 0.800122 4.63247 0.799946ZM3.77247 2.89328C3.10247 2.98328 2.7158 3.15261 2.4338 3.43461C2.1518 3.71661 1.98247 4.10328 1.89247 4.77328C1.87736 4.88661 1.86447 5.00639 1.8538 5.13261H14.0778C14.0671 5.00639 14.0543 4.88639 14.0391 4.77261C13.9491 4.10261 13.7798 3.71595 13.4978 3.43395C13.2158 3.15195 12.8291 2.98261 12.1585 2.89261C11.4738 2.80061 10.5705 2.79928 9.29914 2.79928H6.63247C5.36114 2.79928 4.45847 2.80128 3.77247 2.89328ZM1.79914 7.63328C1.79914 7.06395 1.79914 6.56861 1.8078 6.13328H14.1238C14.1325 6.56861 14.1325 7.06395 14.1325 7.63328V8.96661C14.1325 10.2379 14.1311 11.1413 14.0391 11.8266C13.9491 12.4966 13.7798 12.8833 13.4978 13.1653C13.2158 13.4473 12.8291 13.6166 12.1585 13.7066C11.4738 13.7986 10.5705 13.7999 9.29914 13.7999H6.63247C5.36114 13.7999 4.45847 13.7986 3.77247 13.7066C3.10247 13.6166 2.7158 13.4473 2.4338 13.1653C2.1518 12.8833 1.98247 12.4966 1.89247 11.8259C1.80047 11.1413 1.79914 10.2379 1.79914 8.96661V7.63328Z" fill="#662D91"/>
</svg>
